# xmcd
# Track frame offsets:
# 150
# 18297
# 44805
# 76977
#
# Disc length: 1277 seconds
# Revision: 5
# Processed by: cddbd v1.5.2PL0 Copyright (c) Steve Scherf et al.
# Submitted via: VisiTrax 2.11.3.279 - For more info visit www.synapsa.com
#
DISCID=2904fb04
DTITLE=Gabrielle - Give Me a Little More Time
DYEAR=1996
DGENRE=Electronic - House
TTITLE0=Give Me a Little More Time (Edit)
TTITLE1=Give Me a Little More Time (Buckwild Remix)
TTITLE2=Give Me a Little More Time (Talvin Singh)
TTITLE3=So Glad (Delta 70 Classic)
EXTD=YEAR: 1996
EXTT0=
EXTT1=
EXTT2=
EXTT3=
PLAYORDER=
